HIERARCHY
ROOT Hips
{
 OFFSET 0.000000 0.000000 0.000000
 CHANNELS 6 Xposition Yposition Zposition Yrotation Xrotation Zrotation
 JOINT Chest
 {
  OFFSET 0.000000 9.585900 0.002600
  CHANNELS 3 Yrotation Xrotation Zrotation
  JOINT Chest2
  {
   OFFSET 0.000000 9.601200 -0.005300
   CHANNELS 3 Yrotation Xrotation Zrotation
   JOINT Chest3
   {
    OFFSET 0.000000 9.561800 0.000000
    CHANNELS 3 Yrotation Xrotation Zrotation
    JOINT Chest4
    {
     OFFSET 0.000000 9.552100 0.000000
     CHANNELS 3 Yrotation Xrotation Zrotation
     JOINT Neck
     {
      OFFSET 0.000000 14.453000 0.000000
      CHANNELS 3 Yrotation Xrotation Zrotation
      JOINT Head
      {
       OFFSET 0.000000 8.936500 -0.011300
       CHANNELS 3 Yrotation Xrotation Zrotation
       End Site
       {
        OFFSET 0.000000 17.073600 -0.006000
       }
      }
     }
     JOINT RightCollar
     {
      OFFSET -2.921100 9.558500 0.000000
      CHANNELS 3 Yrotation Xrotation Zrotation
      JOINT RightShoulder
      {
       OFFSET -13.519700 0.000000 0.000000
       CHANNELS 3 Yrotation Xrotation Zrotation
       JOINT RightElbow
       {
        OFFSET 0.000000 -29.696600 0.000000
        CHANNELS 3 Yrotation Xrotation Zrotation
        JOINT RightWrist
        {
         OFFSET 0.000000 -24.004700 0.000000
         CHANNELS 3 Yrotation Xrotation Zrotation
         End Site
         {
          OFFSET 0.000000 -17.728500 0.000000
         }
        }
       }
      }
     }
     JOINT LeftCollar
     {
      OFFSET 2.921100 9.558500 0.000000
      CHANNELS 3 Yrotation Xrotation Zrotation
      JOINT LeftShoulder
      {
       OFFSET 13.519700 0.000000 0.000000
       CHANNELS 3 Yrotation Xrotation Zrotation
       JOINT LeftElbow
       {
        OFFSET 0.000000 -29.696600 0.000000
        CHANNELS 3 Yrotation Xrotation Zrotation
        JOINT LeftWrist
        {
         OFFSET 0.000000 -24.004700 0.000000
         CHANNELS 3 Yrotation Xrotation Zrotation
         End Site
         {
          OFFSET 0.000000 -17.728500 0.000000
         }
        }
       }
      }
     }
    }
   }
  }
 }
 JOINT RightHip
 {
  OFFSET -7.771700 -0.012900 -0.001300
  CHANNELS 3 Yrotation Xrotation Zrotation
  JOINT RightKnee
  {
   OFFSET 0.000000 -40.869800 0.001200
   CHANNELS 3 Yrotation Xrotation Zrotation
   JOINT RightAnkle
   {
    OFFSET 0.000000 -39.717900 0.002100
    CHANNELS 3 Yrotation Xrotation Zrotation
    JOINT RightToe
    {
     OFFSET 0.000000 -4.965400 11.033500
     CHANNELS 3 Yrotation Xrotation Zrotation
     End Site
     {
      OFFSET 0.000000 -1.423100 5.872300
     }
    }
   }
  }
 }
 JOINT LeftHip
 {
  OFFSET 7.771700 -0.012900 -0.001300
  CHANNELS 3 Yrotation Xrotation Zrotation
  JOINT LeftKnee
  {
   OFFSET 0.000000 -40.869800 0.001200
   CHANNELS 3 Yrotation Xrotation Zrotation
   JOINT LeftAnkle
   {
    OFFSET 0.000000 -39.717900 0.002100
    CHANNELS 3 Yrotation Xrotation Zrotation
    JOINT LeftToe
    {
     OFFSET 0.000000 -4.965400 11.033500
     CHANNELS 3 Yrotation Xrotation Zrotation
     End Site
     {
      OFFSET 0.000000 -1.423100 5.872300
     }
    }
   }
  }
 }
}
MOTION
Frames: 7
Frame Time: 0.008333
0.000000 85.388000 0.000000 0.000000 -5.767877 0.000000 0.000000 11.653817 0.000000 0.000000 -5.885947 0.000000 0.000000 -0.000000 0.000000 0.000000 -0.000000 0.000000 0.000000 12.528835 0.000000 0.000000 0.711642 0.000000 0.000000 -0.000000 0.000000 0.000000 0.000000 -90.000000 0.000000 -2.309062 0.000000 0.000000 2.309062 0.000000 0.000000 -0.000000 0.000000 0.000000 -0.000000 90.000000 0.000000 -2.309062 0.000000 0.000000 2.309062 0.000000 0.000000 8.520406 0.000000 0.000000 1.905762 0.000000 -0.000000 -4.658285 0.000000 0.000000 -0.000000 0.000000 0.000000 8.520406 0.000000 0.000000 1.905762 0.000000 -0.000000 -4.658285 0.000000 0.000000 -0.000000 0.000000
-15.132904 58.188219 55.717604 176.346219 -31.314253 -2.184163 2.779127 21.348443 4.430326 0.253431 2.906212 0.340019 0.414584 4.736553 0.564610 1.916453 18.244960 2.434643 -3.057716 13.442164 -1.906071 -4.850707 -10.693865 -2.366048 1.491252 -3.563218 -2.033070 4.997371 -6.498881 -14.626746 -131.477965 -85.598780 169.469748 12.345288 -16.342480 -41.897541 -6.128517 -4.422642 -2.372257 -0.558060 -2.741593 -0.772433 -118.297801 -77.117904 86.112272 -7.187473 -3.318111 17.795169 9.225282 -39.738215 -4.866924 -1.121225 68.037703 -1.090597 4.848570 6.955776 7.661715 -0.049304 0.131290 -0.013704 -11.177301 -46.470848 5.247813 25.436475 64.548272 21.663316 -8.809383 35.142625 4.430309 0.294918 -18.941437 -7.367165
-15.136664 58.190380 55.716307 176.351315 -31.314816 -2.176876 2.775165 21.346646 4.418663 0.252075 2.903674 0.340464 0.412777 4.740320 0.565831 1.915202 18.242095 2.432085 -2.993882 13.498182 -1.880097 -4.736079 -10.572713 -2.335605 1.492313 -3.558499 -2.034563 4.997552 -6.504161 -14.633222 -131.592183 -85.600232 169.586492 12.351897 -16.339587 -41.889780 -6.125517 -4.423100 -2.380820 -0.557678 -2.736419 -0.766710 -118.321028 -77.116648 86.138296 -7.175200 -3.335836 17.835261 9.225420 -39.734342 -4.870597 -1.110258 68.038329 -1.095337 4.838612 6.952696 7.669677 -0.047198 0.131163 -0.012577 -11.137311 -46.467102 5.210558 25.432183 64.539259 21.671081 -8.812443 35.133219 4.437113 0.292363 -18.934675 -7.363716
-15.141150 58.192804 55.714904 176.356137 -31.313225 -2.167527 2.770636 21.341046 4.406616 0.248818 2.902419 0.338541 0.414543 4.739129 0.566274 1.912292 18.244454 2.431994 -2.929009 13.558137 -1.852965 -4.619387 -10.454148 -2.305670 1.495639 -3.559198 -2.040531 5.004936 -6.511757 -14.652016 -131.450338 -85.597596 169.438325 12.353642 -16.337878 -41.883250 -6.121232 -4.425264 -2.392439 -0.554127 -2.734561 -0.767188 -118.316612 -77.110911 86.129536 -7.162959 -3.350366 17.876075 9.224459 -39.731980 -4.879476 -1.113815 68.038793 -1.110796 4.839213 6.947708 7.674043 -0.050683 0.132416 -0.012533 -11.098034 -46.465126 5.174796 25.429196 64.528691 21.675399 -8.820320 35.130929 4.446599 0.294897 -18.935869 -7.363213
-15.143429 58.197506 55.710312 176.339859 -31.333342 -2.161304 2.785746 21.355293 4.407382 0.249505 2.904791 0.339187 0.414555 4.729540 0.561644 1.912867 18.247297 2.434402 -2.862107 13.623273 -1.822981 -4.501716 -10.344349 -2.274896 1.493991 -3.558754 -2.044807 5.007556 -6.506089 -14.646219 -131.598541 -85.604099 169.592238 12.345138 -16.338847 -41.888313 -6.115010 -4.423708 -2.404028 -0.554816 -2.748048 -0.776232 -118.236404 -77.111305 86.052646 -7.160354 -3.360606 17.901875 9.226030 -39.708624 -4.865058 -1.119025 68.035508 -1.125059 4.841169 6.945386 7.674515 -0.047377 0.131988 -0.012246 -11.060405 -46.440965 5.163377 25.460649 64.535725 21.692273 -8.778407 35.097413 4.510051 0.262558 -18.925050 -7.373106
-15.145021 58.200570 55.708741 176.347658 -31.329725 -2.174728 2.783249 21.342586 4.408845 0.249274 2.910956 0.345771 0.414292 4.730483 0.562727 1.911154 18.228507 2.423082 -2.791378 13.696555 -1.785107 -4.385587 -10.244958 -2.243026 1.496149 -3.547662 -2.042806 5.014550 -6.503051 -14.653937 -131.479850 -85.600665 169.470289 12.359622 -16.330997 -41.876766 -6.108876 -4.409810 -2.409859 -0.557982 -2.745917 -0.767591 -118.261395 -77.115385 86.083749 -7.160860 -3.358467 17.906438 9.207613 -39.708076 -4.848291 -1.127621 68.029858 -1.138350 4.840267 6.945577 7.673482 -0.045429 0.131501 -0.011937 -11.070847 -46.439509 5.174257 25.474195 64.537399 21.701691 -8.761385 35.075862 4.518362 0.257860 -18.919646 -7.367520
-15.146984 58.205115 55.704818 176.336273 -31.341122 -2.176849 2.796595 21.350590 4.415620 0.248498 2.908460 0.343535 0.414255 4.728190 0.562021 1.916729 18.223390 2.420986 -2.675049 13.784128 -1.733065 -4.319285 -10.179024 -2.213994 1.499202 -3.541296 -2.044358 5.010171 -6.503679 -14.654998 -131.421907 -85.598609 169.415841 12.373024 -16.319327 -41.864391 -6.106439 -4.401361 -2.416560 -0.560981 -2.746914 -0.759829 -118.331270 -77.135489 86.165859 -7.176876 -3.347364 17.903042 9.211439 -39.693205 -4.837060 -1.140849 68.025165 -1.148605 4.843097 6.947901 7.671854 -0.046849 0.128192 -0.012746 -11.041494 -46.420994 5.176506 25.487436 64.542861 21.706183 -8.755996 35.043144 4.547179 0.251103 -18.905235 -7.368000
